<svg xmlns="http://www.w3.org/2000/svg" viewBox="0 0 30 30">    <path fill="#DA291C" fill-rule="evenodd" d="M24.735 26.415a14.75 14.75 0 0 1-4.603.72c-5.212 0-11.323-4.111-14.284-11.096-.967 1.261-1.72 3.35-1.72 5.5 0 4.378 4.1 8.463 10.892 8.463 4.168 0 7.478-1.677 9.715-3.587m-21.149-1.68a14.713 14.713 0 0 1-.72-4.602c0-5.211 4.111-11.322 11.097-14.282-1.262-.969-3.354-1.722-5.5-1.722C4.083 4.13 0 8.23 0 15.021c0 4.17 1.676 7.478 3.586 9.715M5.263 3.588a14.745 14.745 0 0 1 4.605-.72c5.211 0 11.323 4.112 14.283 11.097.968-1.263 1.72-3.353 1.72-5.501C25.87 4.084 21.772 0 14.98 0 10.81 0 7.5 1.677 5.262 3.588m21.15 1.678C28.324 7.502 30 10.813 30 14.983c0 6.792-4.083 10.89-8.463 10.89-2.147 0-4.238-.754-5.502-1.72 6.989-2.96 11.099-9.073 11.099-14.284 0-1.95-.362-3.51-.72-4.603"/></svg>